<svg width="512" height="512" viewBox="0 0 512 512" fill="none" xmlns="http://www.w3.org/2000/svg">
<rect width="512" height="512" rx="50" fill="#001B3A"/>
<path d="M145.003 345.347C181.469 345.347 214.239 326.011 214.239 290.979C214.239 222.051 118.393 253.444 118.393 216.819C118.393 205.445 130.713 195.89 145.003 195.89C160.28 195.89 171.613 204.99 171.613 220.231H207.34C207.833 187.246 179.498 167 145.003 167C111.248 167 81.435 187.474 81.435 216.819C81.435 282.789 177.28 247.529 177.28 290.979C177.28 304.855 162.251 316.457 145.003 316.457C127.017 316.457 112.726 305.538 112.726 287.566H77C77 326.239 107.799 345.347 145.003 345.347Z" fill="white"/>
<path d="M263.302 341.553V219.571C263.302 206.826 274.429 196.585 288.275 196.585C302.121 196.585 313.247 206.826 313.247 219.571V341.553H348.356V219.571C348.356 190.441 321.9 167 288.275 167C254.649 167 228.193 190.441 228.193 219.571V341.553H263.302Z" fill="white"/>
<path fill-rule="evenodd" clip-rule="evenodd" d="M343.297 238.137C336.512 243.491 327.945 246.687 318.632 246.687C317.352 246.687 316.086 246.627 314.837 246.509V341.553H343.297V238.137ZM358.033 200.89C363.385 198.178 369.458 196.585 374.918 196.585C388.764 196.585 399.891 206.826 399.891 219.571V341.553H435V219.571C435 190.441 408.544 167 374.918 167C362.979 167 351.944 169.955 342.676 175.07C350.778 181.211 356.458 190.379 358.033 200.89Z" fill="white"/>
</svg>
