<?xml version="1.0" encoding="utf-8"?>
<svg xmlns="http://www.w3.org/2000/svg" style="margin: auto; background: none; display: block; shape-rendering: auto;" width="630" height="250" preserveAspectRatio="xMidYMid">
<style type="text/css">
  text {
    text-anchor: middle; font-size: 80px; opacity: 0;
  }
</style>
<g style="transform-origin:315px 125px;transform:scale(1)">
<g transform="translate(315,125)">
  <g transform="translate(-10,0)"><g class="path" style="transform: matrix(0.005, 0, 0, 1, -49.75, 0); opacity: 0; transform-origin: -258.245px -7.79309px; animation: 1s linear 0s 1 normal forwards running grow-ltr-in-445c8c0d-cf8c-469a-a62c-e08dea326cb3;"><path d="M47.50-42.19L37.36-42.19L37.36-42.19Q36.96-45.91 34.02-47.98L34.02-47.98L34.02-47.98Q31.08-50.06 26.39-50.06L26.39-50.06L26.39-50.06Q23.10-50.06 20.74-49.06L20.74-49.06L20.74-49.06Q18.38-48.07 17.13-46.36L17.13-46.36L17.13-46.36Q15.88-44.66 15.85-42.47L15.85-42.47L15.85-42.47Q15.85-40.65 16.69-39.32L16.69-39.32L16.69-39.32Q17.53-37.98 18.98-37.06L18.98-37.06L18.98-37.06Q20.43-36.14 22.19-35.51L22.19-35.51L22.19-35.51Q23.95-34.89 25.74-34.46L25.74-34.46L31.19-33.10L31.19-33.10Q34.49-32.33 37.54-31.02L37.54-31.02L37.54-31.02Q40.60-29.72 43.03-27.73L43.03-27.73L43.03-27.73Q45.45-25.74 46.88-22.93L46.88-22.93L46.88-22.93Q48.30-20.11 48.30-16.34L48.30-16.34L48.30-16.34Q48.30-11.22 45.68-7.34L45.68-7.34L45.68-7.34Q43.07-3.47 38.14-1.29L38.14-1.29L38.14-1.29Q33.21 0.88 26.22 0.88L26.22 0.88L26.22 0.88Q19.43 0.88 14.45-1.22L14.45-1.22L14.45-1.22Q9.46-3.32 6.66-7.36L6.66-7.36L6.66-7.36Q3.86-11.39 3.64-17.19L3.64-17.19L14.01-17.19L14.01-17.19Q14.23-14.15 15.88-12.13L15.88-12.13L15.88-12.13Q17.53-10.11 20.18-9.12L20.18-9.12L20.18-9.12Q22.84-8.13 26.14-8.13L26.14-8.13L26.14-8.13Q29.57-8.13 32.17-9.16L32.17-9.16L32.17-9.16Q34.77-10.20 36.25-12.06L36.25-12.06L36.25-12.06Q37.73-13.92 37.76-16.42L37.76-16.42L37.76-16.42Q37.73-18.69 36.42-20.18L36.42-20.18L36.42-20.18Q35.11-21.68 32.77-22.68L32.77-22.68L32.77-22.68Q30.43-23.69 27.30-24.49L27.30-24.49L20.68-26.19L20.68-26.19Q13.49-28.04 9.33-31.80L9.33-31.80L9.33-31.80Q5.17-35.57 5.17-41.82L5.17-41.82L5.17-41.82Q5.17-46.96 7.97-50.82L7.97-50.82L7.97-50.82Q10.77-54.69 15.60-56.83L15.60-56.83L15.60-56.83Q20.43-58.98 26.53-58.98L26.53-58.98L26.53-58.98Q32.73-58.98 37.40-56.83L37.40-56.83L37.40-56.83Q42.07-54.69 44.74-50.89L44.74-50.89L44.74-50.89Q47.41-47.10 47.50-42.19L47.50-42.19" fill="#444447" stroke="none" stroke-width="none" transform="translate(-284.21502685546875,21.256906104454618)" style="fill: rgb(68, 68, 71);"></path></g><g class="path" style="transform: matrix(0.005, 0, 0, 1, -49.75, 0); opacity: 0; transform-origin: -204.23px -7.8331px; animation: 1s linear 0.0507692s 1 normal forwards running grow-ltr-in-445c8c0d-cf8c-469a-a62c-e08dea326cb3;"><path d="M79.74-46.25L64.23 0L52.98 0L73.47-58.18L86.48-58.18L106.99 0L95.74 0L80.20-46.25L79.74-46.25" fill="#444447" stroke="none" stroke-width="none" transform="translate(-284.21502685546875,21.256906104454618)" style="fill: rgb(68, 68, 71);"></path></g><g class="path" style="transform: matrix(0.005, 0, 0, 1, -49.75, 0); opacity: 0; transform-origin: -204.275px 2.67691px; animation: 1s linear 0.101538s 1 normal forwards running grow-ltr-in-445c8c0d-cf8c-469a-a62c-e08dea326cb3;"><path d="M64.60-14.35L64.60-22.81L95.28-22.81L95.28-14.35L64.60-14.35" fill="#444447" stroke="none" stroke-width="none" transform="translate(-284.21502685546875,21.256906104454618)" style="fill: rgb(68, 68, 71);"></path></g><g class="path" style="transform: matrix(0.005, 0, 0, 1, -49.75, 0); opacity: 0; transform-origin: -151.475px -7.8331px; animation: 1s linear 0.152308s 1 normal forwards running grow-ltr-in-445c8c0d-cf8c-469a-a62c-e08dea326cb3;"><path d="M150.82 0L114.66 0L114.66-58.18L125.20-58.18L125.20-8.84L150.82-8.84L150.82 0" fill="#444447" stroke="none" stroke-width="none" transform="translate(-284.21502685546875,21.256906104454618)" style="fill: rgb(68, 68, 71);"></path></g><g class="path" style="transform: matrix(0.005, 0, 0, 1, -49.75, 0); opacity: 0; transform-origin: -98.86px -7.8331px; animation: 1s linear 0.203077s 1 normal forwards running grow-ltr-in-445c8c0d-cf8c-469a-a62c-e08dea326cb3;"><path d="M185.11-46.25L169.60 0L158.35 0L178.84-58.18L191.85-58.18L212.36 0L201.11 0L185.57-46.25L185.11-46.25" fill="#444447" stroke="none" stroke-width="none" transform="translate(-284.21502685546875,21.256906104454618)" style="fill: rgb(68, 68, 71);"></path></g><g class="path" style="transform: matrix(0.005, 0, 0, 1, -49.75, 0); opacity: 0; transform-origin: -98.905px 2.67691px; animation: 1s linear 0.253846s 1 normal forwards running grow-ltr-in-445c8c0d-cf8c-469a-a62c-e08dea326cb3;"><path d="M169.97-14.35L169.97-22.81L200.65-22.81L200.65-14.35L169.97-14.35" fill="#444447" stroke="none" stroke-width="none" transform="translate(-284.21502685546875,21.256906104454618)" style="fill: rgb(68, 68, 71);"></path></g><g class="path" style="transform: matrix(0.005, 0, 0, 1, -49.75, 0); opacity: 0; transform-origin: -40.15px -7.8331px; animation: 1s linear 0.304615s 1 normal forwards running grow-ltr-in-445c8c0d-cf8c-469a-a62c-e08dea326cb3;"><path d="M230.57 0L220.03 0L220.03-58.18L230.57-58.18L230.57-33.55L257.53-33.55L257.53-58.18L268.10-58.18L268.10 0L257.53 0L257.53-24.72L230.57-24.72L230.57 0" fill="#444447" stroke="none" stroke-width="none" transform="translate(-284.21502685546875,21.256906104454618)" style="fill: rgb(68, 68, 71);"></path></g><g class="path" style="transform: matrix(0.005, 0, 0, 1, -49.75, 0); opacity: 0; transform-origin: 45.7px -7.8331px; animation: 1s linear 0.355385s 1 normal forwards running grow-ltr-in-445c8c0d-cf8c-469a-a62c-e08dea326cb3;"><path d="M299.40 0L299.40-58.18L312.30-58.18L329.57-16.02L330.26-16.02L347.53-58.18L360.43-58.18L360.43 0L350.31 0L350.31-39.97L349.77-39.97L333.69-0.17L326.14-0.17L310.06-40.06L309.52-40.06L309.52 0L299.40 0" fill="#444447" stroke="none" stroke-width="none" transform="translate(-284.21502685546875,21.256906104454618)" style="fill: rgb(68, 68, 71);"></path></g><g class="path" style="transform: matrix(0.005, 0, 0, 1, -49.75, 0); opacity: 0; transform-origin: 111.295px -7.3931px; animation: 1s linear 0.406154s 1 normal forwards running grow-ltr-in-445c8c0d-cf8c-469a-a62c-e08dea326cb3;"><path d="M408.58-21.05L408.58-58.18L419.12-58.18L419.12-20.17L419.12-20.17Q419.12-13.92 416.18-9.18L416.18-9.18L416.18-9.18Q413.24-4.43 407.93-1.78L407.93-1.78L407.93-1.78Q402.61 0.88 395.51 0.88L395.51 0.88L395.51 0.88Q388.38 0.88 383.07-1.78L383.07-1.78L383.07-1.78Q377.76-4.43 374.83-9.18L374.83-9.18L374.83-9.18Q371.90-13.92 371.90-20.17L371.90-20.17L371.90-58.18L382.44-58.18L382.44-21.05L382.44-21.05Q382.44-17.41 384.05-14.57L384.05-14.57L384.05-14.57Q385.65-11.73 388.58-10.13L388.58-10.13L388.58-10.13Q391.51-8.52 395.51-8.52L395.51-8.52L395.51-8.52Q399.52-8.52 402.46-10.13L402.46-10.13L402.46-10.13Q405.40-11.73 406.99-14.57L406.99-14.57L406.99-14.57Q408.58-17.41 408.58-21.05L408.58-21.05" fill="#444447" stroke="none" stroke-width="none" transform="translate(-284.21502685546875,21.256906104454618)" style="fill: rgb(68, 68, 71);"></path></g><g class="path" style="transform: matrix(0.005, 0, 0, 1, -49.75, 0); opacity: 0; transform-origin: 166.605px -7.79309px; animation: 1s linear 0.456923s 1 normal forwards running grow-ltr-in-445c8c0d-cf8c-469a-a62c-e08dea326cb3;"><path d="M472.36-42.19L462.22-42.19L462.22-42.19Q461.82-45.91 458.88-47.98L458.88-47.98L458.88-47.98Q455.94-50.06 451.25-50.06L451.25-50.06L451.25-50.06Q447.95-50.06 445.60-49.06L445.60-49.06L445.60-49.06Q443.24-48.07 441.99-46.36L441.99-46.36L441.99-46.36Q440.74-44.66 440.71-42.47L440.71-42.47L440.71-42.47Q440.71-40.65 441.55-39.32L441.55-39.32L441.55-39.32Q442.39-37.98 443.84-37.06L443.84-37.06L443.84-37.06Q445.28-36.14 447.05-35.51L447.05-35.51L447.05-35.51Q448.81-34.89 450.60-34.46L450.60-34.46L456.05-33.10L456.05-33.10Q459.35-32.33 462.40-31.02L462.40-31.02L462.40-31.02Q465.45-29.72 467.88-27.73L467.88-27.73L467.88-27.73Q470.31-25.74 471.73-22.93L471.73-22.93L471.73-22.93Q473.15-20.11 473.15-16.34L473.15-16.34L473.15-16.34Q473.15-11.22 470.54-7.34L470.54-7.34L470.54-7.34Q467.93-3.47 463.00-1.29L463.00-1.29L463.00-1.29Q458.07 0.88 451.08 0.88L451.08 0.88L451.08 0.88Q444.29 0.88 439.30-1.22L439.30-1.22L439.30-1.22Q434.32-3.32 431.52-7.36L431.52-7.36L431.52-7.36Q428.72-11.39 428.49-17.19L428.49-17.19L438.86-17.19L438.86-17.19Q439.09-14.15 440.74-12.13L440.74-12.13L440.74-12.13Q442.39-10.11 445.04-9.12L445.04-9.12L445.04-9.12Q447.70-8.13 450.99-8.13L450.99-8.13L450.99-8.13Q454.43-8.13 457.03-9.16L457.03-9.16L457.03-9.16Q459.63-10.20 461.11-12.06L461.11-12.06L461.11-12.06Q462.59-13.92 462.61-16.42L462.61-16.42L462.61-16.42Q462.59-18.69 461.28-20.18L461.28-20.18L461.28-20.18Q459.97-21.68 457.63-22.68L457.63-22.68L457.63-22.68Q455.28-23.69 452.16-24.49L452.16-24.49L445.54-26.19L445.54-26.19Q438.35-28.04 434.19-31.80L434.19-31.80L434.19-31.80Q430.03-35.57 430.03-41.82L430.03-41.82L430.03-41.82Q430.03-46.96 432.83-50.82L432.83-50.82L432.83-50.82Q435.63-54.69 440.45-56.83L440.45-56.83L440.45-56.83Q445.28-58.98 451.39-58.98L451.39-58.98L451.39-58.98Q457.59-58.98 462.26-56.83L462.26-56.83L462.26-56.83Q466.93-54.69 469.60-50.89L469.60-50.89L469.60-50.89Q472.27-47.10 472.36-42.19L472.36-42.19" fill="#444447" stroke="none" stroke-width="none" transform="translate(-284.21502685546875,21.256906104454618)" style="fill: rgb(68, 68, 71);"></path></g><g class="path" style="transform: matrix(0.005, 0, 0, 1, -49.75, 0); opacity: 0; transform-origin: 218.545px -7.79309px; animation: 1s linear 0.507692s 1 normal forwards running grow-ltr-in-445c8c0d-cf8c-469a-a62c-e08dea326cb3;"><path d="M524.29-42.19L514.15-42.19L514.15-42.19Q513.75-45.91 510.81-47.98L510.81-47.98L510.81-47.98Q507.87-50.06 503.18-50.06L503.18-50.06L503.18-50.06Q499.89-50.06 497.53-49.06L497.53-49.06L497.53-49.06Q495.17-48.07 493.92-46.36L493.92-46.36L493.92-46.36Q492.67-44.66 492.64-42.47L492.64-42.47L492.64-42.47Q492.64-40.65 493.48-39.32L493.48-39.32L493.48-39.32Q494.32-37.98 495.77-37.06L495.77-37.06L495.77-37.06Q497.22-36.14 498.98-35.51L498.98-35.51L498.98-35.51Q500.74-34.89 502.53-34.46L502.53-34.46L507.98-33.10L507.98-33.10Q511.28-32.33 514.33-31.02L514.33-31.02L514.33-31.02Q517.39-29.72 519.82-27.73L519.82-27.73L519.82-27.73Q522.24-25.74 523.66-22.93L523.66-22.93L523.66-22.93Q525.09-20.11 525.09-16.34L525.09-16.34L525.09-16.34Q525.09-11.22 522.47-7.34L522.47-7.34L522.47-7.34Q519.86-3.47 514.93-1.29L514.93-1.29L514.93-1.29Q510 0.88 503.01 0.88L503.01 0.88L503.01 0.88Q496.22 0.88 491.24-1.22L491.24-1.22L491.24-1.22Q486.25-3.32 483.45-7.36L483.45-7.36L483.45-7.36Q480.65-11.39 480.43-17.19L480.43-17.19L490.80-17.19L490.80-17.19Q491.02-14.15 492.67-12.13L492.67-12.13L492.67-12.13Q494.32-10.11 496.97-9.12L496.97-9.12L496.97-9.12Q499.63-8.13 502.93-8.13L502.93-8.13L502.93-8.13Q506.36-8.13 508.96-9.16L508.96-9.16L508.96-9.16Q511.56-10.20 513.04-12.06L513.04-12.06L513.04-12.06Q514.52-13.92 514.55-16.42L514.55-16.42L514.55-16.42Q514.52-18.69 513.21-20.18L513.21-20.18L513.21-20.18Q511.90-21.68 509.56-22.68L509.56-22.68L509.56-22.68Q507.22-23.69 504.09-24.49L504.09-24.49L497.47-26.19L497.47-26.19Q490.28-28.04 486.12-31.80L486.12-31.80L486.12-31.80Q481.96-35.57 481.96-41.82L481.96-41.82L481.96-41.82Q481.96-46.96 484.76-50.82L484.76-50.82L484.76-50.82Q487.56-54.69 492.39-56.83L492.39-56.83L492.39-56.83Q497.22-58.98 503.32-58.98L503.32-58.98L503.32-58.98Q509.52-58.98 514.19-56.83L514.19-56.83L514.19-56.83Q518.86-54.69 521.53-50.89L521.53-50.89L521.53-50.89Q524.20-47.10 524.29-42.19L524.29-42.19" fill="#444447" stroke="none" stroke-width="none" transform="translate(-284.21502685546875,21.256906104454618)" style="fill: rgb(68, 68, 71);"></path></g><g class="path" style="transform: matrix(0.005, 0, 0, 1, -49.75, 0); opacity: 0; transform-origin: 272.56px -7.8331px; animation: 1s linear 0.558462s 1 normal forwards running grow-ltr-in-445c8c0d-cf8c-469a-a62c-e08dea326cb3;"><path d="M556.53-46.25L541.02 0L529.77 0L550.26-58.18L563.27-58.18L583.78 0L572.53 0L556.99-46.25L556.53-46.25" fill="#444447" stroke="none" stroke-width="none" transform="translate(-284.21502685546875,21.256906104454618)" style="fill: rgb(68, 68, 71);"></path></g><g class="path" style="transform: matrix(0.005, 0, 0, 1, -49.75, 0); opacity: 0; transform-origin: 272.515px 2.67691px; animation: 1s linear 0.609231s 1 normal forwards running grow-ltr-in-445c8c0d-cf8c-469a-a62c-e08dea326cb3;"><path d="M541.39-14.35L541.39-22.81L572.07-22.81L572.07-14.35L541.39-14.35" fill="#444447" stroke="none" stroke-width="none" transform="translate(-284.21502685546875,21.256906104454618)" style="fill: rgb(68, 68, 71);"></path></g></g>
</g>
</g>
<style id="grow-ltr-in-445c8c0d-cf8c-469a-a62c-e08dea326cb3" data-anikit="">@keyframes grow-ltr-in-445c8c0d-cf8c-469a-a62c-e08dea326cb3
{
  0% {
    animation-timing-function: cubic-bezier(0.1006,0.3357,-0.2396,0.6703);
    transform: translate(-49.75px,0px) rotate(0deg) scale(0.005,1) skewX(0deg) skewY(0deg);
    opacity: 0;
  }
  2% {
    animation-timing-function: cubic-bezier(0.2668,0.6542,0.5372,0.8035);
    transform: translate(-31.2px,0px) rotate(0deg) scale(0.376,1) skewX(0deg) skewY(0deg);
    opacity: 1;
  }
  100% {
    transform: translate(0px,0px) rotate(0deg) scale(1,1) skewX(0deg) skewY(0deg);
    opacity: 1;
  }
}</style></svg>