<?xml version="1.0" encoding="utf-8"?>
<svg xmlns="http://www.w3.org/2000/svg" style="margin: auto; background: none; display: block; shape-rendering: auto;" width="574" height="250" preserveAspectRatio="xMidYMid">
<style type="text/css">
  text {
    text-anchor: middle; font-size: 80px; opacity: 0;
  }
</style>
<g style="transform-origin:287px 125px;transform:scale(1)">
<g transform="translate(287,125)">
  <g transform="translate(0,0)"><g class="path" style="transform: matrix(0.01, 0, 0, 0.01, 0, 0); transform-origin: -220.595px -6.51114px; animation: 1s linear 0s 1 normal forwards running zoom-in-8a972272-9f1a-4d5a-aea8-10ded1a23bcb;"><path d="M49.32-40.74L35.85-40.74L35.85-40.74Q35.57-43.86 33.34-45.61L33.34-45.61L33.34-45.61Q31.11-47.36 26.99-47.36L26.99-47.36L26.99-47.36Q24.26-47.36 22.44-46.65L22.44-46.65L22.44-46.65Q20.63-45.94 19.72-44.70L19.72-44.70L19.72-44.70Q18.81-43.47 18.78-41.88L18.78-41.88L18.78-41.88Q18.72-40.57 19.30-39.57L19.30-39.57L19.30-39.57Q19.89-38.58 21.01-37.83L21.01-37.83L21.01-37.83Q22.13-37.07 23.72-36.51L23.72-36.51L23.72-36.51Q25.31-35.94 27.30-35.51L27.30-35.51L32.30-34.38L32.30-34.38Q36.62-33.44 39.93-31.88L39.93-31.88L39.93-31.88Q43.24-30.31 45.50-28.15L45.50-28.15L45.50-28.15Q47.76-25.99 48.92-23.18L48.92-23.18L48.92-23.18Q50.09-20.37 50.11-16.88L50.11-16.88L50.11-16.88Q50.09-11.36 47.33-7.41L47.33-7.41L47.33-7.41Q44.57-3.47 39.42-1.36L39.42-1.36L39.42-1.36Q34.26 0.74 26.99 0.74L26.99 0.74L26.99 0.74Q19.69 0.74 14.26-1.45L14.26-1.45L14.26-1.45Q8.84-3.64 5.82-8.10L5.82-8.10L5.82-8.10Q2.81-12.56 2.73-19.38L2.73-19.38L16.19-19.38L16.19-19.38Q16.36-16.56 17.70-14.69L17.70-14.69L17.70-14.69Q19.03-12.81 21.38-11.85L21.38-11.85L21.38-11.85Q23.72-10.88 26.82-10.88L26.82-10.88L26.82-10.88Q29.66-10.88 31.66-11.65L31.66-11.65L31.66-11.65Q33.66-12.41 34.74-13.78L34.74-13.78L34.74-13.78Q35.82-15.14 35.85-16.90L35.85-16.90L35.85-16.90Q35.82-18.55 34.83-19.73L34.83-19.73L34.83-19.73Q33.84-20.91 31.78-21.78L31.78-21.78L31.78-21.78Q29.72-22.64 26.53-23.38L26.53-23.38L20.45-24.80L20.45-24.80Q12.90-26.53 8.55-30.41L8.55-30.41L8.55-30.41Q4.20-34.29 4.23-40.91L4.23-40.91L4.23-40.91Q4.20-46.31 7.13-50.37L7.13-50.37L7.13-50.37Q10.06-54.43 15.23-56.70L15.23-56.70L15.23-56.70Q20.40-58.98 27.02-58.98L27.02-58.98L27.02-58.98Q33.78-58.98 38.76-56.69L38.76-56.69L38.76-56.69Q43.75-54.40 46.51-50.28L46.51-50.28L46.51-50.28Q49.26-46.16 49.32-40.74L49.32-40.74" fill="#292929" stroke="none" stroke-width="none" transform="translate(-247.0150146484375,22.608857727050783)" style="fill: rgb(41, 41, 41);"></path></g><g class="path" style="transform: matrix(0.01, 0, 0, 0.01, 0, 0); transform-origin: -171.6px 0.878859px; animation: 1s linear 0.066s 1 normal forwards running zoom-in-8a972272-9f1a-4d5a-aea8-10ded1a23bcb;"><path d="M69.55 0.74L69.55 0.74L69.55 0.74Q65.37 0.74 62.14-0.67L62.14-0.67L62.14-0.67Q58.92-2.07 57.06-4.93L57.06-4.93L57.06-4.93Q55.20-7.78 55.20-12.10L55.20-12.10L55.20-12.10Q55.20-15.74 56.48-18.24L56.48-18.24L56.48-18.24Q57.76-20.74 60-22.30L60-22.30L60-22.30Q62.24-23.86 65.17-24.67L65.17-24.67L65.17-24.67Q68.10-25.48 71.42-25.77L71.42-25.77L71.42-25.77Q75.14-26.11 77.41-26.49L77.41-26.49L77.41-26.49Q79.69-26.88 80.72-27.60L80.72-27.60L80.72-27.60Q81.76-28.32 81.76-29.66L81.76-29.66L81.76-29.80L81.76-29.80Q81.76-31.99 80.26-33.18L80.26-33.18L80.26-33.18Q78.75-34.38 76.19-34.38L76.19-34.38L76.19-34.38Q73.44-34.38 71.76-33.18L71.76-33.18L71.76-33.18Q70.09-31.99 69.63-29.89L69.63-29.89L56.82-30.34L56.82-30.34Q57.39-34.32 59.76-37.46L59.76-37.46L59.76-37.46Q62.13-40.60 66.29-42.40L66.29-42.40L66.29-42.40Q70.45-44.20 76.31-44.20L76.31-44.20L76.31-44.20Q80.48-44.20 84.01-43.22L84.01-43.22L84.01-43.22Q87.53-42.24 90.14-40.38L90.14-40.38L90.14-40.38Q92.76-38.52 94.19-35.82L94.19-35.82L94.19-35.82Q95.63-33.13 95.63-29.66L95.63-29.66L95.63 0L82.56 0L82.56-6.08L82.22-6.08L82.22-6.08Q81.05-3.86 79.25-2.33L79.25-2.33L79.25-2.33Q77.44-0.80 75.01-0.03L75.01-0.03L75.01-0.03Q72.59 0.74 69.55 0.74zM73.84-8.35L73.84-8.35L73.84-8.35Q76.08-8.35 77.88-9.26L77.88-9.26L77.88-9.26Q79.69-10.17 80.77-11.78L80.77-11.78L80.77-11.78Q81.85-13.38 81.85-15.51L81.85-15.51L81.85-19.66L81.85-19.66Q81.25-19.35 80.41-19.09L80.41-19.09L80.41-19.09Q79.57-18.84 78.58-18.61L78.58-18.61L78.58-18.61Q77.59-18.38 76.53-18.21L76.53-18.21L76.53-18.21Q75.48-18.04 74.52-17.90L74.52-17.90L74.52-17.90Q72.56-17.59 71.18-16.93L71.18-16.93L71.18-16.93Q69.80-16.28 69.08-15.24L69.08-15.24L69.08-15.24Q68.35-14.20 68.35-12.78L68.35-12.78L68.35-12.78Q68.35-10.63 69.90-9.49L69.90-9.49L69.90-9.49Q71.45-8.35 73.84-8.35" fill="#292929" stroke="none" stroke-width="none" transform="translate(-247.0150146484375,22.608857727050783)" style="fill: rgb(41, 41, 41);"></path></g><g class="path" style="transform: matrix(0.01, 0, 0, 0.01, 0, 0); transform-origin: -135.98px -6.48114px; animation: 1s linear 0.132s 1 normal forwards running zoom-in-8a972272-9f1a-4d5a-aea8-10ded1a23bcb;"><path d="M104.09-58.18L117.98-58.18L117.98 0L104.09 0L104.09-58.18" fill="#292929" stroke="none" stroke-width="none" transform="translate(-247.0150146484375,22.608857727050783)" style="fill: rgb(41, 41, 41);"></path></g><g class="path" style="transform: matrix(0.01, 0, 0, 0.01, 0, 0); transform-origin: -102.06px 0.878859px; animation: 1s linear 0.198s 1 normal forwards running zoom-in-8a972272-9f1a-4d5a-aea8-10ded1a23bcb;"><path d="M139.09 0.74L139.09 0.74L139.09 0.74Q134.91 0.74 131.69-0.67L131.69-0.67L131.69-0.67Q128.47-2.07 126.61-4.93L126.61-4.93L126.61-4.93Q124.74-7.78 124.74-12.10L124.74-12.10L124.74-12.10Q124.74-15.74 126.02-18.24L126.02-18.24L126.02-18.24Q127.30-20.74 129.55-22.30L129.55-22.30L129.55-22.30Q131.79-23.86 134.72-24.67L134.72-24.67L134.72-24.67Q137.64-25.48 140.97-25.77L140.97-25.77L140.97-25.77Q144.69-26.11 146.96-26.49L146.96-26.49L146.96-26.49Q149.23-26.88 150.27-27.60L150.27-27.60L150.27-27.60Q151.31-28.32 151.31-29.66L151.31-29.66L151.31-29.80L151.31-29.80Q151.31-31.99 149.80-33.18L149.80-33.18L149.80-33.18Q148.30-34.38 145.74-34.38L145.74-34.38L145.74-34.38Q142.98-34.38 141.31-33.18L141.31-33.18L141.31-33.18Q139.63-31.99 139.18-29.89L139.18-29.89L126.36-30.34L126.36-30.34Q126.93-34.32 129.30-37.46L129.30-37.46L129.30-37.46Q131.68-40.60 135.84-42.40L135.84-42.40L135.84-42.40Q140-44.20 145.85-44.20L145.85-44.20L145.85-44.20Q150.03-44.20 153.55-43.22L153.55-43.22L153.55-43.22Q157.07-42.24 159.69-40.38L159.69-40.38L159.69-40.38Q162.30-38.52 163.74-35.82L163.74-35.82L163.74-35.82Q165.17-33.13 165.17-29.66L165.17-29.66L165.17 0L152.10 0L152.10-6.08L151.76-6.08L151.76-6.08Q150.60-3.86 148.79-2.33L148.79-2.33L148.79-2.33Q146.99-0.80 144.56-0.03L144.56-0.03L144.56-0.03Q142.13 0.74 139.09 0.74zM143.38-8.35L143.38-8.35L143.38-8.35Q145.63-8.35 147.43-9.26L147.43-9.26L147.43-9.26Q149.23-10.17 150.31-11.78L150.31-11.78L150.31-11.78Q151.39-13.38 151.39-15.51L151.39-15.51L151.39-19.66L151.39-19.66Q150.80-19.35 149.96-19.09L149.96-19.09L149.96-19.09Q149.12-18.84 148.13-18.61L148.13-18.61L148.13-18.61Q147.13-18.38 146.08-18.21L146.08-18.21L146.08-18.21Q145.03-18.04 144.06-17.90L144.06-17.90L144.06-17.90Q142.10-17.59 140.72-16.93L140.72-16.93L140.72-16.93Q139.35-16.28 138.62-15.24L138.62-15.24L138.62-15.24Q137.90-14.20 137.90-12.78L137.90-12.78L137.90-12.78Q137.90-10.63 139.45-9.49L139.45-9.49L139.45-9.49Q140.99-8.35 143.38-8.35" fill="#292929" stroke="none" stroke-width="none" transform="translate(-247.0150146484375,22.608857727050783)" style="fill: rgb(41, 41, 41);"></path></g><g class="path" style="transform: matrix(0.01, 0, 0, 0.01, 0, 0); transform-origin: -52.2848px -6.48114px; animation: 1s linear 0.264s 1 normal forwards running zoom-in-8a972272-9f1a-4d5a-aea8-10ded1a23bcb;"><path d="M187.53-24.89L187.53-24.89L187.53 0L173.64 0L173.64-58.18L187.07-58.18L187.07-35.63L187.56-35.63L187.56-35.63Q189.03-39.66 192.40-41.93L192.40-41.93L192.40-41.93Q195.77-44.20 200.65-44.20L200.65-44.20L200.65-44.20Q205.26-44.20 208.66-42.17L208.66-42.17L208.66-42.17Q212.07-40.14 213.96-36.45L213.96-36.45L213.96-36.45Q215.85-32.76 215.82-27.81L215.82-27.81L215.82 0L201.93 0L201.93-25.09L201.93-25.09Q201.96-28.72 200.11-30.77L200.11-30.77L200.11-30.77Q198.27-32.81 194.91-32.81L194.91-32.81L194.91-32.81Q192.73-32.81 191.07-31.86L191.07-31.86L191.07-31.86Q189.40-30.91 188.48-29.15L188.48-29.15L188.48-29.15Q187.56-27.39 187.53-24.89" fill="#292929" stroke="none" stroke-width="none" transform="translate(-247.0150146484375,22.608857727050783)" style="fill: rgb(41, 41, 41);"></path></g><g class="path" style="transform: matrix(0.01, 0, 0, 0.01, 0, 0); transform-origin: 27.19px -6.48114px; animation: 1s linear 0.33s 1 normal forwards running zoom-in-8a972272-9f1a-4d5a-aea8-10ded1a23bcb;"><path d="M241.68 0L241.68-58.18L259.09-58.18L273.86-22.16L274.55-22.16L289.32-58.18L306.73-58.18L306.73 0L293.04 0L293.04-35.74L292.56-35.74L278.58-0.37L269.83-0.37L255.85-35.94L255.37-35.94L255.37 0L241.68 0" fill="#292929" stroke="none" stroke-width="none" transform="translate(-247.0150146484375,22.608857727050783)" style="fill: rgb(41, 41, 41);"></path></g><g class="path" style="transform: matrix(0.01, 0, 0, 0.01, 0, 0); transform-origin: 89.535px 1.07386px; animation: 1s linear 0.396s 1 normal forwards running zoom-in-8a972272-9f1a-4d5a-aea8-10ded1a23bcb;"><path d="M343.69-18.84L343.69-18.84L343.69-43.64L357.56-43.64L357.56 0L344.32 0L344.32-8.13L343.86-8.13L343.86-8.13Q342.41-4.12 338.93-1.78L338.93-1.78L338.93-1.78Q335.45 0.57 330.54 0.57L330.54 0.57L330.54 0.57Q326.08 0.57 322.70-1.48L322.70-1.48L322.70-1.48Q319.32-3.52 317.44-7.20L317.44-7.20L317.44-7.20Q315.57-10.88 315.54-15.82L315.54-15.82L315.54-43.64L329.43-43.64L329.43-18.55L329.43-18.55Q329.46-15.00 331.31-12.95L331.31-12.95L331.31-12.95Q333.15-10.91 336.34-10.91L336.34-10.91L336.34-10.91Q338.41-10.91 340.07-11.83L340.07-11.83L340.07-11.83Q341.73-12.76 342.71-14.53L342.71-14.53L342.71-14.53Q343.69-16.31 343.69-18.84" fill="#292929" stroke="none" stroke-width="none" transform="translate(-247.0150146484375,22.608857727050783)" style="fill: rgb(41, 41, 41);"></path></g><g class="path" style="transform: matrix(0.01, 0, 0, 0.01, 0, 0); transform-origin: 138px 0.918858px; animation: 1s linear 0.462s 1 normal forwards running zoom-in-8a972272-9f1a-4d5a-aea8-10ded1a23bcb;"><path d="M404.49-30.31L404.49-30.31L391.73-29.97L391.73-29.97Q391.53-31.34 390.65-32.40L390.65-32.40L390.65-32.40Q389.77-33.47 388.37-34.08L388.37-34.08L388.37-34.08Q386.96-34.69 385.11-34.69L385.11-34.69L385.11-34.69Q382.70-34.69 381.01-33.72L381.01-33.72L381.01-33.72Q379.32-32.76 379.35-31.11L379.35-31.11L379.35-31.11Q379.32-29.83 380.38-28.89L380.38-28.89L380.38-28.89Q381.45-27.95 384.20-27.39L384.20-27.39L392.61-25.80L392.61-25.80Q399.15-24.55 402.34-21.65L402.34-21.65L402.34-21.65Q405.54-18.75 405.57-13.98L405.57-13.98L405.57-13.98Q405.54-9.49 402.91-6.16L402.91-6.16L402.91-6.16Q400.28-2.84 395.74-1.01L395.74-1.01L395.74-1.01Q391.19 0.82 385.34 0.82L385.34 0.82L385.34 0.82Q375.99 0.82 370.61-3.03L370.61-3.03L370.61-3.03Q365.23-6.88 364.46-13.35L364.46-13.35L378.18-13.69L378.18-13.69Q378.64-11.31 380.54-10.06L380.54-10.06L380.54-10.06Q382.44-8.81 385.40-8.81L385.40-8.81L385.40-8.81Q388.07-8.81 389.74-9.80L389.74-9.80L389.74-9.80Q391.42-10.80 391.45-12.44L391.45-12.44L391.45-12.44Q391.42-13.92 390.14-14.82L390.14-14.82L390.14-14.82Q388.86-15.71 386.14-16.22L386.14-16.22L378.52-17.67L378.52-17.67Q371.96-18.86 368.75-22.09L368.75-22.09L368.75-22.09Q365.54-25.31 365.57-30.31L365.57-30.31L365.57-30.31Q365.54-34.69 367.90-37.80L367.90-37.80L367.90-37.80Q370.26-40.91 374.60-42.56L374.60-42.56L374.60-42.56Q378.95-44.20 384.86-44.20L384.86-44.20L384.86-44.20Q393.72-44.20 398.84-40.50L398.84-40.50L398.84-40.50Q403.95-36.79 404.49-30.31" fill="#292929" stroke="none" stroke-width="none" transform="translate(-247.0150146484375,22.608857727050783)" style="fill: rgb(41, 41, 41);"></path></g><g class="path" style="transform: matrix(0.01, 0, 0, 0.01, 0, 0); transform-origin: 183.99px 0.918858px; animation: 1s linear 0.528s 1 normal forwards running zoom-in-8a972272-9f1a-4d5a-aea8-10ded1a23bcb;"><path d="M450.48-30.31L450.48-30.31L437.73-29.97L437.73-29.97Q437.53-31.34 436.65-32.40L436.65-32.40L436.65-32.40Q435.77-33.47 434.36-34.08L434.36-34.08L434.36-34.08Q432.95-34.69 431.11-34.69L431.11-34.69L431.11-34.69Q428.69-34.69 427.00-33.72L427.00-33.72L427.00-33.72Q425.31-32.76 425.34-31.11L425.34-31.11L425.34-31.11Q425.31-29.83 426.38-28.89L426.38-28.89L426.38-28.89Q427.44-27.95 430.20-27.39L430.20-27.39L438.61-25.80L438.61-25.80Q445.14-24.55 448.34-21.65L448.34-21.65L448.34-21.65Q451.53-18.75 451.56-13.98L451.56-13.98L451.56-13.98Q451.53-9.49 448.91-6.16L448.91-6.16L448.91-6.16Q446.28-2.84 441.73-1.01L441.73-1.01L441.73-1.01Q437.19 0.82 431.34 0.82L431.34 0.82L431.34 0.82Q421.99 0.82 416.61-3.03L416.61-3.03L416.61-3.03Q411.22-6.88 410.45-13.35L410.45-13.35L424.18-13.69L424.18-13.69Q424.63-11.31 426.53-10.06L426.53-10.06L426.53-10.06Q428.44-8.81 431.39-8.81L431.39-8.81L431.39-8.81Q434.06-8.81 435.74-9.80L435.74-9.80L435.74-9.80Q437.41-10.80 437.44-12.44L437.44-12.44L437.44-12.44Q437.41-13.92 436.14-14.82L436.14-14.82L436.14-14.82Q434.86-15.71 432.13-16.22L432.13-16.22L424.52-17.67L424.52-17.67Q417.95-18.86 414.74-22.09L414.74-22.09L414.74-22.09Q411.53-25.31 411.56-30.31L411.56-30.31L411.56-30.31Q411.53-34.69 413.89-37.80L413.89-37.80L413.89-37.80Q416.25-40.91 420.60-42.56L420.60-42.56L420.60-42.56Q424.94-44.20 430.85-44.20L430.85-44.20L430.85-44.20Q439.72-44.20 444.83-40.50L444.83-40.50L444.83-40.50Q449.94-36.79 450.48-30.31" fill="#292929" stroke="none" stroke-width="none" transform="translate(-247.0150146484375,22.608857727050783)" style="fill: rgb(41, 41, 41);"></path></g><g class="path" style="transform: matrix(0.01, 0, 0, 0.01, 0, 0); transform-origin: 229.535px 0.878859px; animation: 1s linear 0.594s 1 normal forwards running zoom-in-8a972272-9f1a-4d5a-aea8-10ded1a23bcb;"><path d="M470.68 0.74L470.68 0.74L470.68 0.74Q466.51 0.74 463.28-0.67L463.28-0.67L463.28-0.67Q460.06-2.07 458.20-4.93L458.20-4.93L458.20-4.93Q456.34-7.78 456.34-12.10L456.34-12.10L456.34-12.10Q456.34-15.74 457.61-18.24L457.61-18.24L457.61-18.24Q458.89-20.74 461.14-22.30L461.14-22.30L461.14-22.30Q463.38-23.86 466.31-24.67L466.31-24.67L466.31-24.67Q469.23-25.48 472.56-25.77L472.56-25.77L472.56-25.77Q476.28-26.11 478.55-26.49L478.55-26.49L478.55-26.49Q480.82-26.88 481.86-27.60L481.86-27.60L481.86-27.60Q482.90-28.32 482.90-29.66L482.90-29.66L482.90-29.80L482.90-29.80Q482.90-31.99 481.39-33.18L481.39-33.18L481.39-33.18Q479.89-34.38 477.33-34.38L477.33-34.38L477.33-34.38Q474.57-34.38 472.90-33.18L472.90-33.18L472.90-33.18Q471.22-31.99 470.77-29.89L470.77-29.89L457.95-30.34L457.95-30.34Q458.52-34.32 460.89-37.46L460.89-37.46L460.89-37.46Q463.27-40.60 467.43-42.40L467.43-42.40L467.43-42.40Q471.59-44.20 477.44-44.20L477.44-44.20L477.44-44.20Q481.62-44.20 485.14-43.22L485.14-43.22L485.14-43.22Q488.66-42.24 491.28-40.38L491.28-40.38L491.28-40.38Q493.89-38.52 495.33-35.82L495.33-35.82L495.33-35.82Q496.76-33.13 496.76-29.66L496.76-29.66L496.76 0L483.69 0L483.69-6.08L483.35-6.08L483.35-6.08Q482.19-3.86 480.38-2.33L480.38-2.33L480.38-2.33Q478.58-0.80 476.15-0.03L476.15-0.03L476.15-0.03Q473.72 0.74 470.68 0.74zM474.97-8.35L474.97-8.35L474.97-8.35Q477.22-8.35 479.02-9.26L479.02-9.26L479.02-9.26Q480.82-10.17 481.90-11.78L481.90-11.78L481.90-11.78Q482.98-13.38 482.98-15.51L482.98-15.51L482.98-19.66L482.98-19.66Q482.39-19.35 481.55-19.09L481.55-19.09L481.55-19.09Q480.71-18.84 479.72-18.61L479.72-18.61L479.72-18.61Q478.72-18.38 477.67-18.21L477.67-18.21L477.67-18.21Q476.62-18.04 475.65-17.90L475.65-17.90L475.65-17.90Q473.69-17.59 472.32-16.93L472.32-16.93L472.32-16.93Q470.94-16.28 470.21-15.24L470.21-15.24L470.21-15.24Q469.49-14.20 469.49-12.78L469.49-12.78L469.49-12.78Q469.49-10.63 471.04-9.49L471.04-9.49L471.04-9.49Q472.59-8.35 474.97-8.35" fill="#292929" stroke="none" stroke-width="none" transform="translate(-247.0150146484375,22.608857727050783)" style="fill: rgb(41, 41, 41);"></path></g></g>
</g>
</g>
<style id="zoom-in-8a972272-9f1a-4d5a-aea8-10ded1a23bcb" data-anikit="">@keyframes zoom-in-8a972272-9f1a-4d5a-aea8-10ded1a23bcb
{
  0% {
    animation-timing-function: cubic-bezier(0.0436,0.6939,0.3878,0.8531);
    transform: matrix(0.01,0,0,0.01,0,0);
  }
  100% {
    transform: matrix(1,0,0,1,0,0);
  }
}</style></svg>