<?xml version="1.0" encoding="utf-8"?>
<svg xmlns="http://www.w3.org/2000/svg" style="margin: auto; background: none; display: block; shape-rendering: auto;" width="200" height="100" preserveAspectRatio="xMidYMid">
<style type="text/css">
  text {
    text-anchor: middle; font-size: 25px; opacity: 0;
  }
</style>
<g style="transform-origin:100px 50px;transform:scale(1)">
<g transform="translate(100,50)">
  <g transform="translate(-3,0)"><g class="path" style="opacity: 1; transform-origin: -66.86px -2.00168px; animation: 1s linear -0.9s infinite normal forwards running fade-3af35bd9-61f7-4894-8962-8268516bdcb5;"><path d="M14.84-13.18L11.67-13.18L11.67-13.18Q11.55-14.35 10.63-14.99L10.63-14.99L10.63-14.99Q9.71-15.64 8.25-15.64L8.25-15.64L8.25-15.64Q7.22-15.64 6.48-15.33L6.48-15.33L6.48-15.33Q5.74-15.02 5.35-14.49L5.35-14.49L5.35-14.49Q4.96-13.96 4.95-13.27L4.95-13.27L4.95-13.27Q4.95-12.70 5.22-12.29L5.22-12.29L5.22-12.29Q5.48-11.87 5.93-11.58L5.93-11.58L5.93-11.58Q6.38-11.29 6.93-11.10L6.93-11.10L6.93-11.10Q7.48-10.90 8.04-10.77L8.04-10.77L9.75-10.34L9.75-10.34Q10.78-10.10 11.73-9.69L11.73-9.69L11.73-9.69Q12.69-9.29 13.45-8.66L13.45-8.66L13.45-8.66Q14.20-8.04 14.65-7.16L14.65-7.16L14.65-7.16Q15.09-6.29 15.09-5.10L15.09-5.10L15.09-5.10Q15.09-3.51 14.28-2.29L14.28-2.29L14.28-2.29Q13.46-1.08 11.92-0.40L11.92-0.40L11.92-0.40Q10.38 0.28 8.19 0.28L8.19 0.28L8.19 0.28Q6.07 0.28 4.51-0.38L4.51-0.38L4.51-0.38Q2.96-1.04 2.08-2.30L2.08-2.30L2.08-2.30Q1.21-3.56 1.14-5.37L1.14-5.37L4.38-5.37L4.38-5.37Q4.45-4.42 4.96-3.79L4.96-3.79L4.96-3.79Q5.48-3.16 6.31-2.85L6.31-2.85L6.31-2.85Q7.14-2.54 8.17-2.54L8.17-2.54L8.17-2.54Q9.24-2.54 10.05-2.86L10.05-2.86L10.05-2.86Q10.87-3.19 11.33-3.77L11.33-3.77L11.33-3.77Q11.79-4.35 11.80-5.13L11.80-5.13L11.80-5.13Q11.79-5.84 11.38-6.31L11.38-6.31L11.38-6.31Q10.97-6.77 10.24-7.09L10.24-7.09L10.24-7.09Q9.51-7.40 8.53-7.65L8.53-7.65L6.46-8.19L6.46-8.19Q4.22-8.76 2.92-9.94L2.92-9.94L2.92-9.94Q1.62-11.12 1.62-13.07L1.62-13.07L1.62-13.07Q1.62-14.68 2.49-15.88L2.49-15.88L2.49-15.88Q3.36-17.09 4.87-17.76L4.87-17.76L4.87-17.76Q6.38-18.43 8.29-18.43L8.29-18.43L8.29-18.43Q10.23-18.43 11.69-17.76L11.69-17.76L11.69-17.76Q13.15-17.09 13.98-15.90L13.98-15.90L13.98-15.90Q14.82-14.72 14.84-13.18L14.84-13.18" fill="#292929" stroke="none" stroke-width="none" transform="translate(-74.9749755859375,7.073315917968741)" style="fill: rgb(41, 41, 41);"></path></g><g class="path" style="opacity: 1; transform-origin: -51.855px 0.308316px; animation: 1s linear -0.8s infinite normal forwards running fade-3af35bd9-61f7-4894-8962-8268516bdcb5;"><path d="M21.80 0.28L21.80 0.28L21.80 0.28Q20.51 0.28 19.47-0.19L19.47-0.19L19.47-0.19Q18.44-0.66 17.84-1.57L17.84-1.57L17.84-1.57Q17.24-2.49 17.24-3.83L17.24-3.83L17.24-3.83Q17.24-4.98 17.67-5.74L17.67-5.74L17.67-5.74Q18.09-6.49 18.83-6.94L18.83-6.94L18.83-6.94Q19.57-7.40 20.49-7.63L20.49-7.63L20.49-7.63Q21.42-7.87 22.42-7.97L22.42-7.97L22.42-7.97Q23.62-8.10 24.36-8.20L24.36-8.20L24.36-8.20Q25.11-8.30 25.45-8.52L25.45-8.52L25.45-8.52Q25.79-8.74 25.79-9.20L25.79-9.20L25.79-9.25L25.79-9.25Q25.79-10.25 25.20-10.80L25.20-10.80L25.20-10.80Q24.60-11.35 23.48-11.35L23.48-11.35L23.48-11.35Q22.30-11.35 21.61-10.84L21.61-10.84L21.61-10.84Q20.93-10.32 20.69-9.62L20.69-9.62L17.68-10.05L17.68-10.05Q18.04-11.29 18.86-12.13L18.86-12.13L18.86-12.13Q19.67-12.97 20.85-13.39L20.85-13.39L20.85-13.39Q22.03-13.81 23.46-13.81L23.46-13.81L23.46-13.81Q24.45-13.81 25.43-13.58L25.43-13.58L25.43-13.58Q26.40-13.35 27.21-12.82L27.21-12.82L27.21-12.82Q28.02-12.30 28.51-11.39L28.51-11.39L28.51-11.39Q29.00-10.48 29.00-9.13L29.00-9.13L29.00 0L25.91 0L25.91-1.87L25.81-1.87L25.81-1.87Q25.51-1.31 24.99-0.81L24.99-0.81L24.99-0.81Q24.46-0.32 23.66-0.02L23.66-0.02L23.66-0.02Q22.87 0.28 21.80 0.28zM22.64-2.09L22.64-2.09L22.64-2.09Q23.61-2.09 24.32-2.47L24.32-2.47L24.32-2.47Q25.03-2.86 25.41-3.50L25.41-3.50L25.41-3.50Q25.80-4.14 25.80-4.89L25.80-4.89L25.80-6.50L25.80-6.50Q25.65-6.37 25.29-6.27L25.29-6.27L25.29-6.27Q24.93-6.16 24.49-6.08L24.49-6.08L24.49-6.08Q24.04-6.00 23.61-5.94L23.61-5.94L23.61-5.94Q23.17-5.88 22.85-5.83L22.85-5.83L22.85-5.83Q22.13-5.74 21.56-5.51L21.56-5.51L21.56-5.51Q21.00-5.29 20.67-4.90L20.67-4.90L20.67-4.90Q20.34-4.50 20.34-3.88L20.34-3.88L20.34-3.88Q20.34-2.99 20.99-2.54L20.99-2.54L20.99-2.54Q21.64-2.09 22.64-2.09" fill="#292929" stroke="none" stroke-width="none" transform="translate(-74.9749755859375,7.073315917968741)" style="fill: rgb(41, 41, 41);"></path></g><g class="path" style="opacity: 1; transform-origin: -41.125px -2.01668px; animation: 1s linear -0.7s infinite normal forwards running fade-3af35bd9-61f7-4894-8962-8268516bdcb5;"><path d="M32.24-18.18L35.46-18.18L35.46 0L32.24 0L32.24-18.18" fill="#292929" stroke="none" stroke-width="none" transform="translate(-74.9749755859375,7.073315917968741)" style="fill: rgb(41, 41, 41);"></path></g><g class="path" style="opacity: 1; transform-origin: -30.975px 0.308316px; animation: 1s linear -0.6s infinite normal forwards running fade-3af35bd9-61f7-4894-8962-8268516bdcb5;"><path d="M42.68 0.28L42.68 0.28L42.68 0.28Q41.39 0.28 40.35-0.19L40.35-0.19L40.35-0.19Q39.32-0.66 38.72-1.57L38.72-1.57L38.72-1.57Q38.12-2.49 38.12-3.83L38.12-3.83L38.12-3.83Q38.12-4.98 38.55-5.74L38.55-5.74L38.55-5.74Q38.97-6.49 39.71-6.94L39.71-6.94L39.71-6.94Q40.45-7.40 41.38-7.63L41.38-7.63L41.38-7.63Q42.30-7.87 43.30-7.97L43.30-7.97L43.30-7.97Q44.50-8.10 45.24-8.20L45.24-8.20L45.24-8.20Q45.99-8.30 46.33-8.52L46.33-8.52L46.33-8.52Q46.67-8.74 46.67-9.20L46.67-9.20L46.67-9.25L46.67-9.25Q46.67-10.25 46.08-10.80L46.08-10.80L46.08-10.80Q45.48-11.35 44.36-11.35L44.36-11.35L44.36-11.35Q43.18-11.35 42.49-10.84L42.49-10.84L42.49-10.84Q41.81-10.32 41.57-9.62L41.57-9.62L38.57-10.05L38.57-10.05Q38.92-11.29 39.74-12.13L39.74-12.13L39.74-12.13Q40.55-12.97 41.73-13.39L41.73-13.39L41.73-13.39Q42.92-13.81 44.34-13.81L44.34-13.81L44.34-13.81Q45.33-13.81 46.31-13.58L46.31-13.58L46.31-13.58Q47.28-13.35 48.09-12.82L48.09-12.82L48.09-12.82Q48.90-12.30 49.39-11.39L49.39-11.39L49.39-11.39Q49.88-10.48 49.88-9.13L49.88-9.13L49.88 0L46.80 0L46.80-1.87L46.69-1.87L46.69-1.87Q46.40-1.31 45.87-0.81L45.87-0.81L45.87-0.81Q45.34-0.32 44.54-0.02L44.54-0.02L44.54-0.02Q43.75 0.28 42.68 0.28zM43.52-2.09L43.52-2.09L43.52-2.09Q44.49-2.09 45.20-2.47L45.20-2.47L45.20-2.47Q45.91-2.86 46.29-3.50L46.29-3.50L46.29-3.50Q46.68-4.14 46.68-4.89L46.68-4.89L46.68-6.50L46.68-6.50Q46.53-6.37 46.17-6.27L46.17-6.27L46.17-6.27Q45.81-6.16 45.37-6.08L45.37-6.08L45.37-6.08Q44.92-6.00 44.49-5.94L44.49-5.94L44.49-5.94Q44.05-5.88 43.73-5.83L43.73-5.83L43.73-5.83Q43.01-5.74 42.44-5.51L42.44-5.51L42.44-5.51Q41.88-5.29 41.55-4.90L41.55-4.90L41.55-4.90Q41.22-4.50 41.22-3.88L41.22-3.88L41.22-3.88Q41.22-2.99 41.87-2.54L41.87-2.54L41.87-2.54Q42.52-2.09 43.52-2.09" fill="#292929" stroke="none" stroke-width="none" transform="translate(-74.9749755859375,7.073315917968741)" style="fill: rgb(41, 41, 41);"></path></g><g class="path" style="opacity: 1; transform-origin: -15.82px -2.01668px; animation: 1s linear -0.5s infinite normal forwards running fade-3af35bd9-61f7-4894-8962-8268516bdcb5;"><path d="M56.34-7.99L56.34-7.99L56.34 0L53.13 0L53.13-18.18L56.27-18.18L56.27-11.32L56.43-11.32L56.43-11.32Q56.91-12.47 57.91-13.14L57.91-13.14L57.91-13.14Q58.92-13.81 60.48-13.81L60.48-13.81L60.48-13.81Q61.91-13.81 62.96-13.22L62.96-13.22L62.96-13.22Q64.02-12.62 64.60-11.48L64.60-11.48L64.60-11.48Q65.18-10.33 65.18-8.68L65.18-8.68L65.18 0L61.97 0L61.97-8.19L61.97-8.19Q61.97-9.56 61.26-10.33L61.26-10.33L61.26-10.33Q60.56-11.10 59.29-11.10L59.29-11.10L59.29-11.10Q58.43-11.10 57.76-10.73L57.76-10.73L57.76-10.73Q57.09-10.36 56.72-9.67L56.72-9.67L56.72-9.67Q56.34-8.98 56.34-7.99" fill="#292929" stroke="none" stroke-width="none" transform="translate(-74.9749755859375,7.073315917968741)" style="fill: rgb(41, 41, 41);"></path></g><g class="path" style="opacity: 1; transform-origin: 9.36003px -2.01668px; animation: 1s linear -0.4s infinite normal forwards running fade-3af35bd9-61f7-4894-8962-8268516bdcb5;"><path d="M74.80 0L74.80-18.18L78.83-18.18L84.22-5.01L84.44-5.01L89.83-18.18L93.87-18.18L93.87 0L90.70 0L90.70-12.49L90.54-12.49L85.51-0.05L83.15-0.05L78.13-12.52L77.96-12.52L77.96 0L74.80 0" fill="#292929" stroke="none" stroke-width="none" transform="translate(-74.9749755859375,7.073315917968741)" style="fill: rgb(41, 41, 41);"></path></g><g class="path" style="opacity: 1; transform-origin: 28.29px 0.343316px; animation: 1s linear -0.3s infinite normal forwards running fade-3af35bd9-61f7-4894-8962-8268516bdcb5;"><path d="M106.00-5.74L106.00-5.74L106.00-13.64L109.22-13.64L109.22 0L106.10 0L106.10-2.42L105.96-2.42L105.96-2.42Q105.50-1.28 104.44-0.55L104.44-0.55L104.44-0.55Q103.39 0.18 101.86 0.18L101.86 0.18L101.86 0.18Q100.51 0.18 99.49-0.42L99.49-0.42L99.49-0.42Q98.46-1.02 97.89-2.17L97.89-2.17L97.89-2.17Q97.31-3.32 97.31-4.95L97.31-4.95L97.31-13.64L100.52-13.64L100.52-5.45L100.52-5.45Q100.52-4.15 101.23-3.39L101.23-3.39L101.23-3.39Q101.94-2.63 103.10-2.63L103.10-2.63L103.10-2.63Q103.81-2.63 104.47-2.97L104.47-2.97L104.47-2.97Q105.14-3.32 105.57-4.01L105.57-4.01L105.57-4.01Q106.00-4.70 106.00-5.74" fill="#292929" stroke="none" stroke-width="none" transform="translate(-74.9749755859375,7.073315917968741)" style="fill: rgb(41, 41, 41);"></path></g><g class="path" style="opacity: 1; transform-origin: 42.775px 0.303316px; animation: 1s linear -0.2s infinite normal forwards running fade-3af35bd9-61f7-4894-8962-8268516bdcb5;"><path d="M123.30-10.03L123.30-10.03L120.37-9.71L120.37-9.71Q120.24-10.16 119.94-10.55L119.94-10.55L119.94-10.55Q119.63-10.94 119.11-11.18L119.11-11.18L119.11-11.18Q118.60-11.42 117.85-11.42L117.85-11.42L117.85-11.42Q116.85-11.42 116.17-10.98L116.17-10.98L116.17-10.98Q115.49-10.55 115.50-9.85L115.50-9.85L115.50-9.85Q115.49-9.26 115.94-8.89L115.94-8.89L115.94-8.89Q116.39-8.51 117.43-8.27L117.43-8.27L119.75-7.78L119.75-7.78Q121.69-7.36 122.63-6.45L122.63-6.45L122.63-6.45Q123.58-5.55 123.59-4.08L123.59-4.08L123.59-4.08Q123.58-2.80 122.84-1.82L122.84-1.82L122.84-1.82Q122.10-0.83 120.78-0.28L120.78-0.28L120.78-0.28Q119.47 0.27 117.76 0.27L117.76 0.27L117.76 0.27Q115.26 0.27 113.73-0.79L113.73-0.79L113.73-0.79Q112.21-1.84 111.91-3.72L111.91-3.72L115.05-4.02L115.05-4.02Q115.26-3.10 115.95-2.63L115.95-2.63L115.95-2.63Q116.65-2.16 117.76-2.16L117.76-2.16L117.76-2.16Q118.90-2.16 119.60-2.63L119.60-2.63L119.60-2.63Q120.29-3.10 120.29-3.79L120.29-3.79L120.29-3.79Q120.29-4.38 119.85-4.76L119.85-4.76L119.85-4.76Q119.40-5.14 118.46-5.34L118.46-5.34L116.13-5.83L116.13-5.83Q114.17-6.24 113.23-7.21L113.23-7.21L113.23-7.21Q112.29-8.19 112.30-9.68L112.30-9.68L112.30-9.68Q112.29-10.94 112.98-11.87L112.98-11.87L112.98-11.87Q113.68-12.79 114.93-13.30L114.93-13.30L114.93-13.30Q116.18-13.81 117.81-13.81L117.81-13.81L117.81-13.81Q120.21-13.81 121.59-12.79L121.59-12.79L121.59-12.79Q122.97-11.77 123.30-10.03" fill="#292929" stroke="none" stroke-width="none" transform="translate(-74.9749755859375,7.073315917968741)" style="fill: rgb(41, 41, 41);"></path></g><g class="path" style="opacity: 1; transform-origin: 56.5px 0.303316px; animation: 1s linear -0.1s infinite normal forwards running fade-3af35bd9-61f7-4894-8962-8268516bdcb5;"><path d="M137.02-10.03L137.02-10.03L134.09-9.71L134.09-9.71Q133.97-10.16 133.66-10.55L133.66-10.55L133.66-10.55Q133.35-10.94 132.84-11.18L132.84-11.18L132.84-11.18Q132.32-11.42 131.58-11.42L131.58-11.42L131.58-11.42Q130.58-11.42 129.90-10.98L129.90-10.98L129.90-10.98Q129.22-10.55 129.23-9.85L129.23-9.85L129.23-9.85Q129.22-9.26 129.67-8.89L129.67-8.89L129.67-8.89Q130.11-8.51 131.15-8.27L131.15-8.27L133.48-7.78L133.48-7.78Q135.41-7.36 136.36-6.45L136.36-6.45L136.36-6.45Q137.30-5.55 137.31-4.08L137.31-4.08L137.31-4.08Q137.30-2.80 136.56-1.82L136.56-1.82L136.56-1.82Q135.82-0.83 134.51-0.28L134.51-0.28L134.51-0.28Q133.19 0.27 131.49 0.27L131.49 0.27L131.49 0.27Q128.99 0.27 127.46-0.79L127.46-0.79L127.46-0.79Q125.93-1.84 125.64-3.72L125.64-3.72L128.77-4.02L128.77-4.02Q128.99-3.10 129.68-2.63L129.68-2.63L129.68-2.63Q130.37-2.16 131.48-2.16L131.48-2.16L131.48-2.16Q132.63-2.16 133.32-2.63L133.32-2.63L133.32-2.63Q134.02-3.10 134.02-3.79L134.02-3.79L134.02-3.79Q134.02-4.38 133.57-4.76L133.57-4.76L133.57-4.76Q133.12-5.14 132.18-5.34L132.18-5.34L129.86-5.83L129.86-5.83Q127.89-6.24 126.95-7.21L126.95-7.21L126.95-7.21Q126.01-8.19 126.02-9.68L126.02-9.68L126.02-9.68Q126.01-10.94 126.71-11.87L126.71-11.87L126.71-11.87Q127.41-12.79 128.65-13.30L128.65-13.30L128.65-13.30Q129.90-13.81 131.53-13.81L131.53-13.81L131.53-13.81Q133.93-13.81 135.31-12.79L135.31-12.79L135.31-12.79Q136.69-11.77 137.02-10.03" fill="#292929" stroke="none" stroke-width="none" transform="translate(-74.9749755859375,7.073315917968741)" style="fill: rgb(41, 41, 41);"></path></g><g class="path" style="opacity: 1; transform-origin: 70.235px 0.308316px; animation: 1s linear 0s infinite normal forwards running fade-3af35bd9-61f7-4894-8962-8268516bdcb5;"><path d="M143.89 0.28L143.89 0.28L143.89 0.28Q142.60 0.28 141.56-0.19L141.56-0.19L141.56-0.19Q140.53-0.66 139.93-1.57L139.93-1.57L139.93-1.57Q139.33-2.49 139.33-3.83L139.33-3.83L139.33-3.83Q139.33-4.98 139.75-5.74L139.75-5.74L139.75-5.74Q140.18-6.49 140.92-6.94L140.92-6.94L140.92-6.94Q141.65-7.40 142.58-7.63L142.58-7.63L142.58-7.63Q143.51-7.87 144.50-7.97L144.50-7.97L144.50-7.97Q145.70-8.10 146.45-8.20L146.45-8.20L146.45-8.20Q147.19-8.30 147.54-8.52L147.54-8.52L147.54-8.52Q147.88-8.74 147.88-9.20L147.88-9.20L147.88-9.25L147.88-9.25Q147.88-10.25 147.28-10.80L147.28-10.80L147.28-10.80Q146.69-11.35 145.57-11.35L145.57-11.35L145.57-11.35Q144.39-11.35 143.70-10.84L143.70-10.84L143.70-10.84Q143.01-10.32 142.77-9.62L142.77-9.62L139.77-10.05L139.77-10.05Q140.13-11.29 140.94-12.13L140.94-12.13L140.94-12.13Q141.76-12.97 142.94-13.39L142.94-13.39L142.94-13.39Q144.12-13.81 145.55-13.81L145.55-13.81L145.55-13.81Q146.54-13.81 147.51-13.58L147.51-13.58L147.51-13.58Q148.49-13.35 149.30-12.82L149.30-12.82L149.30-12.82Q150.11-12.30 150.60-11.39L150.60-11.39L150.60-11.39Q151.09-10.48 151.09-9.13L151.09-9.13L151.09 0L148.00 0L148.00-1.87L147.90-1.87L147.90-1.87Q147.60-1.31 147.07-0.81L147.07-0.81L147.07-0.81Q146.55-0.32 145.75-0.02L145.75-0.02L145.75-0.02Q144.96 0.28 143.89 0.28zM144.73-2.09L144.73-2.09L144.73-2.09Q145.69-2.09 146.40-2.47L146.40-2.47L146.40-2.47Q147.11-2.86 147.50-3.50L147.50-3.50L147.50-3.50Q147.89-4.14 147.89-4.89L147.89-4.89L147.89-6.50L147.89-6.50Q147.74-6.37 147.38-6.27L147.38-6.27L147.38-6.27Q147.02-6.16 146.57-6.08L146.57-6.08L146.57-6.08Q146.13-6.00 145.69-5.94L145.69-5.94L145.69-5.94Q145.26-5.88 144.94-5.83L144.94-5.83L144.94-5.83Q144.22-5.74 143.65-5.51L143.65-5.51L143.65-5.51Q143.08-5.29 142.76-4.90L142.76-4.90L142.76-4.90Q142.43-4.50 142.43-3.88L142.43-3.88L142.43-3.88Q142.43-2.99 143.08-2.54L143.08-2.54L143.08-2.54Q143.72-2.09 144.73-2.09" fill="#292929" stroke="none" stroke-width="none" transform="translate(-74.9749755859375,7.073315917968741)" style="fill: rgb(41, 41, 41);"></path></g></g>
</g>
</g>
<style id="fade-3af35bd9-61f7-4894-8962-8268516bdcb5" data-anikit="">@keyframes fade-3af35bd9-61f7-4894-8962-8268516bdcb5
{
  0% {
    animation-timing-function: cubic-bezier(0.2057,0.573,0.3723,0.9184);
    opacity: 1;
  }
  100% {
    opacity: 0;
  }
}</style></svg>