<?xml version="1.0" encoding="utf-8"?>
<svg xmlns="http://www.w3.org/2000/svg" fill="none" viewBox="0 0 190 124" height="197px" width="197px" style="height: 100%; width: 100%; background: none; shape-rendering: auto;"><g class="ldl-scale" style="transform-origin: 50% 50%; transform: rotate(0deg) scale(0.82, 0.82);"><g class="ldl-ani" style="transform-origin: 95px 62px; transform: translate(0px, 0px) rotate(0deg) scale(1, 1) skewX(0deg) skewY(0deg); opacity: 1; animation: 1.66667s linear 0s infinite normal forwards running slide-ltr-73e905a5-13ed-435d-b81a-250eba3016c5;">
<g class="ldl-layer"><g class="ldl-ani"><g clip-path="url(#clip0_3_23)">
<g class="ldl-layer"><g class="ldl-ani"><path fill="#393F47" d="M54.929 43.8267C54.5881 40.3892 53.125 37.7187 50.5398 35.8153C47.9545 33.9119 44.446 32.9602 40.0142 32.9602C37.0028 32.9602 34.4602 33.3864 32.3864 34.2386C30.3125 35.0625 28.7216 36.2131 27.6136 37.6903C26.5341 39.1676 25.9943 40.8438 25.9943 42.7188C25.9375 44.2813 26.2642 45.6449 26.9744 46.8097C27.7131 47.9744 28.7216 48.983 30 49.8352C31.2784 50.6591 32.7557 51.3835 34.4318 52.0085C36.108 52.6051 37.8977 53.1165 39.8011 53.5426L47.642 55.4176C51.4489 56.2699 54.9432 57.4062 58.125 58.8267C61.3068 60.2472 64.0625 61.9943 66.392 64.0682C68.7216 66.142 70.5256 68.5852 71.804 71.3977C73.1108 74.2102 73.7784 77.4347 73.8068 81.071C73.7784 86.4119 72.4148 91.0426 69.7159 94.9631C67.0455 98.8551 63.1818 101.881 58.125 104.04C53.0966 106.17 47.0313 107.236 39.929 107.236C32.8835 107.236 26.7472 106.156 21.5199 103.997C16.321 101.838 12.2585 98.642 9.33239 94.4091C6.43466 90.1477 4.91477 84.8778 4.77273 78.5994H22.6278C22.8267 81.5256 23.6648 83.9687 25.142 85.929C26.6477 87.8608 28.6506 89.3239 31.1506 90.3182C33.679 91.2841 36.5341 91.767 39.7159 91.767C42.8409 91.767 45.554 91.3125 47.8551 90.4034C50.1847 89.4943 51.9886 88.2301 53.267 86.6108C54.5455 84.9915 55.1847 83.1307 55.1847 81.0284C55.1847 79.0682 54.6023 77.4205 53.4375 76.0852C52.3011 74.75 50.625 73.6136 48.4091 72.6761C46.2216 71.7386 43.5369 70.8864 40.3551 70.1193L30.8523 67.733C23.4943 65.9432 17.6847 63.1449 13.4233 59.3381C9.16193 55.5312 7.04545 50.4034 7.07386 43.9545C7.04545 38.6705 8.4517 34.054 11.2926 30.1051C14.1619 26.1562 18.0966 23.0739 23.0966 20.858C28.0966 18.642 33.7784 17.5341 40.142 17.5341C46.6193 17.5341 52.2727 18.642 57.1023 20.858C61.9602 23.0739 65.7386 26.1562 68.4375 30.1051C71.1364 34.054 72.5284 38.6278 72.6136 43.8267H54.929ZM87.218 18.7273H109.974L134.008 77.3636H135.031L159.065 18.7273H181.82V106H163.923V49.196H163.198L140.613 105.574H128.425L105.84 48.983H105.116V106H87.218V18.7273Z" style="fill: rgb(57, 63, 71);"></path></g></g>
</g></g></g>
<defs>
<clipPath id="clip0_3_23">
<rect fill="white" height="124" width="190" style="fill: rgb(255, 255, 255);"></rect>
</clipPath>
</defs>
</g></g><style id="slide-ltr-73e905a5-13ed-435d-b81a-250eba3016c5" data-anikit="">@keyframes slide-ltr-73e905a5-13ed-435d-b81a-250eba3016c5
{
  0% {
    animation-timing-function: cubic-bezier(0.4652,0.1051,0.774,0.6426);
    transform: translate(0px,0px) rotate(0deg) scale(1,1) skewX(0deg) skewY(0deg);
    opacity: 1;
  }
  22.5% {
    animation-timing-function: cubic-bezier(0.4142,0.3131,0.7623,0.6513);
    transform: translate(47.8px,0px) rotate(0deg) scale(1,1) skewX(0deg) skewY(0deg);
    opacity: 1;
  }
  45% {
    animation-timing-function: cubic-bezier(0.3615,0.331,0.9646,1.3461);
    transform: translate(147.8px,0px) rotate(0deg) scale(1,1) skewX(0deg) skewY(0deg);
    opacity: 1;
  }
  47.5% {
    animation-timing-function: cubic-bezier(0.7006,0.3332,0.6667,0.6667);
    transform: translate(165.6px,0px) rotate(0deg) scale(1,1) skewX(0deg) skewY(0deg);
    opacity: 0;
  }
  50% {
    animation-timing-function: cubic-bezier(0.1604,0.3176,-0.0218,0.6965);
    transform: translate(-200px,0px) rotate(0deg) scale(1,1) skewX(0deg) skewY(0deg);
    opacity: 0;
  }
  51% {
    animation-timing-function: cubic-bezier(0.1983,0.3529,0.5263,0.6945);
    transform: translate(-179.8px,0px) rotate(0deg) scale(1,1) skewX(0deg) skewY(0deg);
    opacity: 0;
  }
  80.4% {
    animation-timing-function: cubic-bezier(0.2342,0.3708,0.5422,0.9065);
    transform: translate(-38.4px,0px) rotate(0deg) scale(1,1) skewX(0deg) skewY(0deg);
    opacity: 1;
  }
  100% {
    transform: translate(0px,0px) rotate(0deg) scale(1,1) skewX(0deg) skewY(0deg);
    opacity: 1;
  }
}</style><!-- [ldio] generated by https://loading.io/ --></svg>