<svg width="65" height="65" viewBox="0 0 65 65" fill="none" xmlns="http://www.w3.org/2000/svg">
<rect width="65" height="65" rx="10" fill="#001B3A"/>
<path d="M18.4086 43.8429C23.0381 43.8429 27.1983 41.3881 27.1983 36.9406C27.1983 28.1901 15.0304 32.1755 15.0304 27.5258C15.0304 26.0819 16.5944 24.8689 18.4086 24.8689C20.348 24.8689 21.7869 26.0241 21.7869 27.959H26.3225C26.385 23.7715 22.7878 21.2012 18.4086 21.2012C14.1233 21.2012 10.3384 23.8004 10.3384 27.5258C10.3384 35.901 22.5063 31.4246 22.5063 36.9406C22.5063 38.7023 20.5982 40.1752 18.4086 40.1752C16.1252 40.1752 14.311 38.789 14.311 36.5074H9.77539C9.77539 41.417 13.6854 43.8429 18.4086 43.8429Z" fill="white"/>
<path d="M33.4271 43.3612V27.8752C33.4271 26.2572 34.8396 24.9571 36.5974 24.9571C38.3552 24.9571 39.7677 26.2572 39.7677 27.8752V43.3612H44.2249V27.8752C44.2249 24.177 40.8663 21.2012 36.5974 21.2012C32.3285 21.2012 28.9698 24.177 28.9698 27.8752V43.3612H33.4271Z" fill="white"/>
<path fill-rule="evenodd" clip-rule="evenodd" d="M43.5826 30.2322C42.7213 30.912 41.6337 31.3177 40.4513 31.3177C40.2888 31.3177 40.1281 31.31 39.9695 31.2951V43.3612H43.5826V30.2322ZM45.4534 25.5036C46.1329 25.1594 46.9038 24.9571 47.5971 24.9571C49.3549 24.9571 50.7674 26.2572 50.7674 27.8752V43.3612H55.2246V27.8752C55.2246 24.177 51.866 21.2012 47.5971 21.2012C46.0814 21.2012 44.6804 21.5763 43.5038 22.2257C44.5324 23.0053 45.2535 24.1692 45.4534 25.5036Z" fill="white"/>
</svg>
