<svg width="358" height="179" viewBox="0 0 358 179" fill="none" xmlns="http://www.w3.org/2000/svg">
<path d="M68.0034 178.347C104.469 178.347 137.239 159.011 137.239 123.979C137.239 55.0511 41.3934 86.4438 41.3934 49.8189C41.3934 38.4447 53.7129 28.8904 68.0034 28.8904C83.2796 28.8904 94.6135 37.9898 94.6135 53.2312H130.34C130.833 20.246 102.498 0 68.0034 0C34.2481 0 4.43501 20.4735 4.43501 49.8189C4.43501 115.789 100.28 80.5292 100.28 123.979C100.28 137.855 85.2507 149.457 68.0034 149.457C50.017 149.457 35.7264 138.538 35.7264 120.566H0C0 159.239 30.7987 178.347 68.0034 178.347Z" fill="#001B3A"/>
<path d="M186.302 174.553V52.5706C186.302 39.8262 197.429 29.5852 211.275 29.5852C225.121 29.5852 236.247 39.8262 236.247 52.5706V174.553H271.356V52.5706C271.356 23.4406 244.9 0 211.275 0C177.649 0 151.193 23.4406 151.193 52.5706V174.553H186.302Z" fill="#001B3A"/>
<path fill-rule="evenodd" clip-rule="evenodd" d="M266.297 71.1369C259.512 76.4915 250.945 79.6871 241.632 79.6871C240.352 79.6871 239.086 79.6267 237.837 79.5087L237.837 174.553H266.297V71.1369ZM281.033 33.8897C286.385 31.1783 292.458 29.5852 297.918 29.5852C311.764 29.5852 322.891 39.8262 322.891 52.5706V174.553H358V52.5706C358 23.4406 331.544 0 297.918 0C285.979 0 274.944 2.95499 265.676 8.07045C273.778 14.211 279.458 23.3789 281.033 33.8897Z" fill="#001B3A"/>
</svg>
